<svg width="18" height="18" viewBox="0 0 18 18" fill="none" xmlns="http://www.w3.org/2000/svg">
<path d="M15.666 8.99996C15.666 7.23185 14.9636 5.53616 13.7134 4.28591C12.4632 3.03567 10.7675 2.33329 8.99935 2.33329C7.23124 2.33329 5.53555 3.03567 4.2853 4.28591C3.03506 5.53616 2.33268 7.23185 2.33268 8.99996C2.33268 10.7681 3.03506 12.4638 4.2853 13.714C5.53555 14.9642 7.23124 15.6666 8.99935 15.6666C10.7675 15.6666 12.4632 14.9642 13.7134 13.714C14.9636 12.4638 15.666 10.7681 15.666 8.99996ZM17.3327 8.99996C17.3327 11.2101 16.4547 13.3297 14.8919 14.8925C13.3291 16.4553 11.2095 17.3333 8.99935 17.3333C7.905 17.3333 6.82137 17.1177 5.81032 16.699C4.79927 16.2802 3.88061 15.6663 3.10679 14.8925C1.54399 13.3297 0.666016 11.2101 0.666016 8.99996C0.666016 6.78982 1.54399 4.67021 3.10679 3.1074C4.6696 1.5446 6.78921 0.666626 8.99935 0.666626C10.0937 0.666626 11.1773 0.882174 12.1884 1.30096C13.1994 1.71975 14.1181 2.33358 14.8919 3.1074C15.6657 3.88122 16.2796 4.79988 16.6983 5.81093C17.1171 6.82198 17.3327 7.90561 17.3327 8.99996ZM7.33268 6.91663C7.33268 7.58329 6.74935 8.16663 6.08268 8.16663C5.41602 8.16663 4.83268 7.58329 4.83268 6.91663C4.83268 6.24996 5.41602 5.66663 6.08268 5.66663C6.74935 5.66663 7.33268 6.24996 7.33268 6.91663ZM13.166 6.91663C13.166 7.58329 12.5827 8.16663 11.916 8.16663C11.2493 8.16663 10.666 7.58329 10.666 6.91663C10.666 6.24996 11.2493 5.66663 11.916 5.66663C12.5827 5.66663 13.166 6.24996 13.166 6.91663ZM8.99935 13.3583C7.54102 13.3583 6.25768 12.75 5.50768 11.85L6.69102 10.6666C7.06602 11.2666 7.95768 11.6916 8.99935 11.6916C10.041 11.6916 10.9327 11.2666 11.3077 10.6666L12.491 11.85C11.741 12.75 10.4577 13.3583 8.99935 13.3583Z" fill="#666666"/>
</svg>
