<svg viewBox="0 0 58 16" fill="none" xmlns="http://www.w3.org/2000/svg">
<path fill-rule="evenodd" clip-rule="evenodd" d="M2.21592 2.999H0V13.3857H6.12279V11.4132H2.21592V2.999ZM8.03201 2.5832C7.31771 2.5832 6.8511 3.09167 6.8511 3.75435C6.8511 4.40141 7.30305 4.92536 8.00283 4.92536C8.74618 4.92536 9.19813 4.40127 9.19813 3.75435C9.18373 3.09167 8.74618 2.5832 8.03201 2.5832ZM6.90946 13.3857H9.1255V5.85015H6.90946V13.3857ZM14.6645 5.68057C13.4692 5.68057 12.7549 6.40481 12.4633 6.89805H12.4195L12.3173 5.85015H10.3931C10.4222 6.52832 10.4513 7.31411 10.4513 8.25412V13.3859H12.6673V9.04018C12.6673 8.82427 12.6818 8.60863 12.7401 8.45441C12.9005 8.02313 13.265 7.57609 13.8774 7.57609C14.6791 7.57609 14.9998 8.23877 14.9998 9.20949V13.3857H17.2159V8.93216C17.2157 6.71312 16.1224 5.68057 14.6645 5.68057ZM25.408 5.85015H22.7403L21.297 8.11539C21.1221 8.39285 20.9473 8.70103 20.7869 9.02456H20.7577V2.44434H18.5418V13.3856H20.7578V11.0277L21.3117 10.2881L23.0466 13.3856H25.7727L22.8571 8.90118L25.408 5.85015ZM28.9794 5.68057C26.5014 5.68057 25.3787 7.79186 25.3787 9.7026C25.3787 12.0605 26.7638 13.5397 29.1838 13.5397C30.1459 13.5397 31.035 13.3856 31.764 13.0619L31.4727 11.4747C30.8748 11.6905 30.2625 11.7984 29.5045 11.7984C28.4694 11.7984 27.5509 11.3359 27.4927 10.3651H32.0847C32.1139 10.1956 32.1576 9.84106 32.1576 9.44062C32.1575 7.57609 31.283 5.68057 28.9794 5.68057ZM27.4779 8.76258C27.5362 8.14637 27.9154 7.23693 28.8483 7.23693C29.8688 7.23693 30.1018 8.19243 30.1018 8.76258H27.4779ZM39.9418 11.1358V2.44447H37.7257V6.51283H37.6966C37.3757 6.00424 36.7052 5.66522 35.816 5.66522C34.1104 5.66522 32.6089 7.14453 32.6234 9.68724C32.6234 12.0298 33.9793 13.5554 35.6702 13.5554C36.5885 13.5554 37.4633 13.1238 37.9008 12.2915H37.9444L38.0318 13.3857H40C39.9708 12.8771 39.9418 11.9833 39.9418 11.1358ZM37.7257 10.0264C37.7257 10.2112 37.7113 10.3961 37.682 10.5657C37.5508 11.2282 37.0261 11.6905 36.3845 11.6905C35.4662 11.6905 34.8683 10.8891 34.8683 9.61033C34.8683 8.42357 35.3786 7.46833 36.3993 7.46833C37.0846 7.46833 37.5654 7.99242 37.6967 8.60863C37.7259 8.74723 37.7259 8.91667 37.7259 9.04018V10.0264H37.7257Z" fill="#0070F3"/>
<path fill-rule="evenodd" clip-rule="evenodd" d="M56.387 0H43.6131C42.722 0 42 0.716135 42 1.5995V14.4005C42 15.284 42.722 16 43.6131 16H56.3869C57.278 16 58 15.2839 58 14.4005V1.59962C58.0001 0.716256 57.2781 0 56.387 0ZM47.1341 12.66H44.9814V5.81581H47.1341V12.66ZM46.0436 4.97588C45.3639 4.97588 44.9248 4.49988 44.9248 3.91232C44.9248 3.31044 45.3779 2.84864 46.0719 2.84864C46.7657 2.84864 47.1908 3.31044 47.2048 3.91232C47.2048 4.5 46.7657 4.97588 46.0436 4.97588ZM54.9936 12.66H52.841V8.86691C52.841 7.98526 52.5292 7.38338 51.7503 7.38338C51.1555 7.38338 50.8016 7.78928 50.6458 8.18112C50.5892 8.32119 50.5748 8.51704 50.5748 8.71314V12.6601H48.4223V7.99921C48.4223 7.14545 48.3939 6.43176 48.3657 5.81581H50.2351L50.3343 6.76756H50.3768C50.66 6.31958 51.354 5.6618 52.5152 5.6618C53.9314 5.6618 54.9935 6.5996 54.9935 8.61503V12.66H54.9936Z" fill="#0070F3"/>
</svg>
