<svg width="18" height="18" viewBox="0 0 18 18" fill="none" xmlns="http://www.w3.org/2000/svg">
<path d="M18 1.72383C18 0.771788 17.2282 0 16.2762 0H1.72383C0.771788 0 0 0.771788 0 1.72383V16.2762C0 17.2282 0.771788 18 1.72383 18H16.2762C17.2282 18 18 17.2282 18 16.2762L18 1.72383ZM1.74425 1.39683H16.3C16.4795 1.39683 16.6032 1.51854 16.6032 1.69804V9.89418H12.3839C11.9977 9.89418 11.6848 10.1938 11.6848 10.5799C11.6848 12.1027 10.4459 13.3349 8.92309 13.3349C7.43857 13.3349 6.22388 12.1543 6.16372 10.6843C6.16987 10.647 6.17305 10.6206 6.17305 10.5816C6.17305 10.1955 5.86002 9.89419 5.47388 9.89419H1.39683V1.69804C1.39683 1.51854 1.56476 1.39683 1.74425 1.39683ZM16.3 16.6032H1.74425C1.56476 16.6032 1.39683 16.4333 1.39683 16.2538V11.291H4.82183C5.1552 13.2487 6.86739 14.7519 8.92308 14.7519C10.9787 14.7519 12.6909 13.2487 13.0243 11.291H16.6032V16.2538C16.6032 16.4333 16.4795 16.6032 16.3 16.6032Z" fill="#CCCCCC"/>
<path d="M5.05439 4.6456H12.9549C13.341 4.6456 13.6541 4.33334 13.6541 3.94719C13.6541 3.56104 13.341 3.24878 12.9549 3.24878H5.05439C4.66824 3.24878 4.35522 3.56104 4.35522 3.94719C4.35522 4.33334 4.66824 4.6456 5.05439 4.6456Z" fill="#CCCCCC"/>
<path d="M5.05439 7.8624H12.9549C13.341 7.8624 13.6541 7.55013 13.6541 7.16399C13.6541 6.77785 13.341 6.46558 12.9549 6.46558H5.05439C4.66824 6.46558 4.35522 6.77785 4.35522 7.16399C4.35522 7.55013 4.66824 7.8624 5.05439 7.8624Z" fill="#CCCCCC"/>
</svg>
