<?xml version="1.0" encoding="utf-8"?>
<!-- Generator: Adobe Illustrator 21.0.0, SVG Export Plug-In . SVG Version: 6.00 Build 0)  -->
<svg version="1.1" id="Layer_1" xmlns="http://www.w3.org/2000/svg" xmlns:xlink="http://www.w3.org/1999/xlink" x="0px" y="0px"
	 viewBox="0 0 61.2 16.2" style="enable-background:new 0 0 61.2 16.2;" xml:space="preserve">
<g>
	<path d="M11.4,6.2H7.8l0.4-1.8c0-0.2,0.1-0.3,0.1-0.5c0-0.9-0.7-1-1.2-1C6.2,2.9,6,3.3,5.8,3.8l-1.9,8c-0.1,0.3-0.1,0.6-0.1,0.8
		c0,0.8,0.8,0.9,1.1,0.9c1,0,1.2-0.7,1.3-1c0.3-0.8,0.5-1.7,0.6-2.5h3.9l-0.6,2.3c-0.7,2.8-1.7,3.9-5.5,3.9c-1,0-1.9-0.1-2.7-0.4
		c-0.8-0.3-2-1.1-2-2.7c0-0.2,0-0.7,0.4-2.2l1.5-6.6c0.5-2.2,1.1-2.9,1.8-3.4C4.7,0.1,6.4,0,7.4,0c1,0,2.2,0.1,2.9,0.5
		c0.8,0.3,1.7,1,1.7,2.7c0,0.3,0,0.7-0.1,1.1L11.4,6.2z"/>
	<path d="M18.4,0.2L17,6.6h2.6L21,0.2h3.8l-3.6,15.7h-3.8l1.5-6.6h-2.6l-1.5,6.6H11l3.6-15.7H18.4z"/>
	<path d="M26.9,0.2h3.8l-2.6,11.2c0,0.1-0.1,0.5-0.1,0.9c0,0.6,0.5,0.9,1.2,0.9c1.1,0,1.4-0.9,1.6-1.8l2.6-11.2H37l-2.6,11.2
		c-0.6,2.4-1.3,4.7-5.6,4.7c-2.5,0-4.7-0.9-4.7-3.4c0-0.7,0.2-1.6,0.6-3.3L26.9,0.2z"/>
	<path d="M47.5,6.2h-3.6l0.4-1.8c0-0.2,0.1-0.3,0.1-0.5c0-0.9-0.7-1-1.2-1c-0.9,0-1.1,0.4-1.3,0.9l-1.9,8c-0.1,0.3-0.1,0.6-0.1,0.8
		c0,0.8,0.8,0.9,1.1,0.9c1,0,1.2-0.7,1.3-1c0.3-0.8,0.5-1.7,0.6-2.5h3.9l-0.6,2.3c-0.7,2.8-1.7,3.9-5.5,3.9c-1,0-1.9-0.1-2.7-0.4
		c-0.8-0.3-2-1.1-2-2.7c0-0.2,0-0.7,0.4-2.2l1.5-6.6c0.5-2.2,1.1-2.9,1.8-3.4c1-0.8,2.8-0.9,3.8-0.9c1,0,2.2,0.1,2.9,0.5
		c0.8,0.3,1.7,1,1.7,2.7c0,0.3,0,0.7-0.1,1.1L47.5,6.2z"/>
	<path d="M57.2,0.3h4l-5.1,7.2l1.9,8.4h-3.9l-1.5-8.4l-1.9,8.4h-3.8l3.6-15.6h3.8l-1.6,6.9L57.2,0.3z"/>
</g>
</svg>
