<svg id="图层_1" data-name="图层 1" xmlns="http://www.w3.org/2000/svg" viewBox="0 0 136 52"><defs><style>.cls-1,.cls-2{stroke:#000;stroke-miterlimit:10;}.cls-2{fill:none;stroke-width:1.25px;}</style></defs><title>logo方案</title><path class="cls-1" d="M65.05,40.69v8.4H63.37v-8a1.68,1.68,0,0,0-1.68-1.68,5.58,5.58,0,0,0-2.65.72,3.2,3.2,0,0,0-1.44,2.4v6.6H55.92v-16H57.6v6.13a3.28,3.28,0,0,1,1.08-.73,7.55,7.55,0,0,1,3.49-.72,2.88,2.88,0,0,1,2.88,2.89"/><path class="cls-1" d="M49.89,34.24a19,19,0,0,1,3.24,0l-.21,1.52a16.24,16.24,0,0,0-4.8.72,5.54,5.54,0,0,0-3.72,5.17c.12,1.92.47,3.73,3.48,5a11.5,11.5,0,0,0,5.28.84L53,49a17.18,17.18,0,0,1-3.12.12c-3-.12-7.44-2.4-7.47-7.41C42.42,37.2,45.86,34.64,49.89,34.24Z"/><rect class="cls-1" x="91.46" y="33.12" width="1.68" height="15.97"/><path class="cls-1" d="M69.85,45.61V37.44H68.17v8.17a4.31,4.31,0,0,0,.21,1.68,2.91,2.91,0,0,0,2.67,1.8c1.68,0,4.56-1.81,4.56-1.81v1.33h1.68V37.44H75.61v8.17s-1.34.92-1.8,1.14a4.94,4.94,0,0,1-2.28.54A1.71,1.71,0,0,1,69.85,45.61Z"/><path class="cls-1" d="M85.84,37.5a15.27,15.27,0,0,1,2.52,0l-.16,1.18a12.66,12.66,0,0,0-3.74.56,4.31,4.31,0,0,0-2.89,4,3.93,3.93,0,0,0,2.71,3.93,9,9,0,0,0,4.11.65L88.29,49a12.81,12.81,0,0,1-2.42.09c-2.34-.09-5.8-1.86-5.82-5.76C80,39.81,82.7,37.81,85.84,37.5Z"/><path class="cls-1" d="M100.64,48.17l-1,.92Q97.32,46.72,95.48,45l-2-1.94v0c.16-.16.9-.9,2.21-2.24s2.37-2.44,3.18-3.3l1,1.06-2.63,2.55c-.91.9-1.49,1.46-1.72,1.68v0Q98.61,46,100.64,48.17Z"/><path class="cls-1" d="M104.66,40.94v8.15H103V37.44h1.68v1.78h0a12,12,0,0,1,4.64-1.75l.33,1.54a12,12,0,0,0-5,1.93Z"/><path class="cls-1" d="M116.43,37.44c-4.32,0-5.4,3.61-5.4,5.89,0,2.88,1.56,5.76,5.4,5.76s5.4-2.76,5.4-5.76C121.83,41.17,120.75,37.44,116.43,37.44Zm0,10.09a4.1,4.1,0,0,1-3.72-4.2,3.75,3.75,0,1,1,7.44,0A4.1,4.1,0,0,1,116.43,47.53Z"/><path class="cls-1" d="M129.15,37.44c-4.32,0-5.4,3.61-5.4,5.89,0,2.88,1.56,5.76,5.4,5.76s5.4-2.76,5.4-5.76C134.55,41.17,133.47,37.44,129.15,37.44Zm0,10.09a4.1,4.1,0,0,1-3.72-4.2,3.75,3.75,0,1,1,7.44,0A4.1,4.1,0,0,1,129.15,47.53Z"/><path class="cls-2" d="M47.41,29.58a8.06,8.06,0,0,0-1-4h0a8.48,8.48,0,0,1-1-4,8.07,8.07,0,0,1,6.87-8c.39,0,3.14-.4,3.2-2s-2.29-1.77-3.2-2.1A11.23,11.23,0,0,1,48.28,7.5a5.08,5.08,0,0,1-1.34-5.44,5,5,0,0,1,1.39,5.27,13.2,13.2,0,0,1-7.92,8.18,17.48,17.48,0,0,0-5.11-.92A13.14,13.14,0,0,0,22.15,27.75c0,4.71,2.88,8.77,3.14,9.16A27.19,27.19,0,0,0,27,39.28c.18.22,6.36,8.43,10.24,9.49h0c-.31,0-.62,0-.94,0-4.64-.06-6.21-2.94-7.26-4.38a15.39,15.39,0,0,1-2.29-8.18,8,8,0,0,1,4-7,4.45,4.45,0,0,1,1.46-.68A5.29,5.29,0,0,0,36,23.69c0-2.75-2-4.71-5-5.1a14.14,14.14,0,0,0-2-.14A13.1,13.1,0,0,0,16,31.54v4.19A13.09,13.09,0,0,1,2.9,48.82"/><circle class="cls-1" cx="47.42" cy="29.77" r="1.31"/><circle class="cls-1" cx="2.91" cy="48.75" r="1.31"/></svg>