<svg width="236" height="88" viewBox="0 0 236 88" fill="none" xmlns="http://www.w3.org/2000/svg">
<path d="M109.545 69.169V84.1669H106.537V69.8099C106.537 69.0167 106.226 68.2558 105.673 67.6937C105.12 67.1315 104.368 66.8139 103.584 66.8103C101.942 66.8727 100.34 67.3408 98.9178 68.1737C98.2003 68.6447 97.5989 69.2753 97.1594 70.0173C96.72 70.7593 96.4542 71.5931 96.3825 72.4549V84.2215H93.4561V55.6846H96.4229V66.5921C96.9647 66.0362 97.6113 65.5957 98.3244 65.2969C100.237 64.3744 102.343 63.9347 104.46 64.0152C105.809 64.0152 107.102 64.5568 108.055 65.5207C109.009 66.4847 109.545 67.7921 109.545 69.1554" fill="#010101"/>
<path d="M82.8161 57.6343C84.7141 57.4686 86.6226 57.4686 88.5206 57.6343L88.1565 60.3611C85.2857 60.3544 82.4304 60.7865 79.6874 61.6428C77.7871 62.3082 76.1364 63.5507 74.9609 65.2004C73.7854 66.8501 73.1425 68.8266 73.1199 70.8597C73.3357 74.2819 73.956 77.5133 79.2694 79.8448C82.2163 81.0765 85.4084 81.5902 88.588 81.3446L88.3722 83.9215C86.5481 84.1582 84.7064 84.2266 82.8701 84.126C77.5702 83.9215 69.735 79.8448 69.681 70.9142C69.6271 62.9653 75.6957 58.3841 82.8161 57.6343Z" fill="#010101"/>
<path d="M159.105 55.6846H156.138V84.1533H159.105V55.6846Z" fill="#010101"/>
<path d="M118.013 77.9498V63.3882H115.06V77.9498C114.978 78.9643 115.101 79.9851 115.424 80.9494C115.811 81.8917 116.463 82.698 117.3 83.2678C118.137 83.8376 119.122 84.1456 120.131 84.1535C123.097 84.1535 128.222 80.9357 128.222 80.9357V83.2945H131.189V63.3882H128.222V77.9498C128.222 77.9498 125.848 79.5995 125.053 79.9813C123.802 80.6304 122.413 80.9626 121.007 80.9494C120.22 80.9424 119.466 80.625 118.907 80.0647C118.348 79.5044 118.027 78.7456 118.013 77.9498Z" fill="#010101"/>
<path d="M146.226 63.4835C147.706 63.3574 149.195 63.3574 150.676 63.4835L150.393 65.5969C148.157 65.5961 145.934 65.9363 143.798 66.6058C142.321 67.1221 141.038 68.0866 140.123 69.3677C139.208 70.6488 138.707 72.184 138.687 73.7639C138.862 76.4908 139.334 78.945 143.474 80.7584C145.764 81.7169 148.245 82.1186 150.716 81.931L150.554 83.9216C149.138 84.1127 147.707 84.172 146.279 84.0988C142.153 83.9216 136.057 80.7584 136.017 73.8184C135.976 67.6011 140.696 64.0425 146.226 63.4835Z" fill="#010101"/>
<path d="M172.348 82.5173L170.568 84.1534C167.87 81.3266 165.429 78.8724 163.245 76.7908L159.685 73.3277C159.981 73.055 161.276 71.7325 163.582 69.3328C165.888 66.9331 167.763 64.997 169.192 63.47L170.986 65.3379C169.502 66.7831 167.965 68.3102 166.347 69.9054L163.299 72.905C166.94 76.7499 169.956 79.954 172.348 82.5173Z" fill="#010101"/>
<path d="M179.428 69.6328V84.1535H176.461V63.3882H179.428V66.565C181.908 64.9499 184.697 63.8813 187.614 63.4291L188.194 66.156C185.051 66.6204 182.054 67.7998 179.428 69.6055V69.6328Z" fill="#010101"/>
<path d="M200.182 63.3882C192.562 63.3882 190.647 69.81 190.647 73.8867C190.647 79.0133 193.345 84.1535 200.182 84.1535C207.019 84.1535 209.716 79.2314 209.716 73.8867C209.716 70.0282 207.801 63.3882 200.182 63.3882ZM200.182 81.372C198.352 81.1997 196.656 80.3305 195.436 78.9406C194.217 77.5507 193.565 75.744 193.614 73.8867C193.552 72.957 193.673 72.024 193.971 71.142C194.268 70.2601 194.736 69.4466 195.347 68.749C195.958 68.0513 196.7 67.4833 197.53 67.078C198.36 66.6726 199.262 66.438 200.182 66.3878C203.365 66.3878 206.749 69.1147 206.749 73.8867C206.798 75.744 206.147 77.5507 204.928 78.9406C203.708 80.3305 202.012 81.1997 200.182 81.372Z" fill="#010101"/>
<path d="M222.636 63.3882C215.003 63.3882 213.102 69.81 213.102 73.8867C213.102 79.0133 215.799 84.1535 222.636 84.1535C229.473 84.1535 232.157 79.2314 232.157 73.8867C232.157 70.0282 230.255 63.3882 222.636 63.3882ZM222.636 81.372C220.806 81.1997 219.11 80.3305 217.89 78.9406C216.671 77.5507 216.019 75.744 216.068 73.8867C216.068 69.1692 219.453 66.3878 222.636 66.3878C225.819 66.3878 229.19 69.1147 229.19 73.8867C229.239 75.7419 228.59 77.5467 227.373 78.9363C226.157 80.3258 224.463 81.1964 222.636 81.372Z" fill="#010101"/>
<path d="M83.2613 50.7216C83.2699 48.2926 82.6467 45.9039 81.4542 43.7953C80.3123 41.6814 79.6967 39.3182 79.6606 36.9099C79.6447 33.5461 80.8249 30.2885 82.9859 27.7307C85.1469 25.173 88.1449 23.4854 91.4336 22.9755C92.0944 22.9755 96.8279 22.2937 96.9088 19.4714C96.8009 16.8672 92.9979 16.4037 91.4336 15.8447C88.9955 15.1839 86.7061 14.0544 84.6907 12.5178C83.4504 11.3387 82.5777 9.81882 82.18 8.14508C81.7823 6.47134 81.8769 4.71659 82.4521 3.09644C83.6813 4.21953 84.5613 5.67952 84.9851 7.29886C85.4088 8.9182 85.3581 10.6271 84.8391 12.2179C83.7792 15.4453 82.0178 18.3918 79.6841 20.8408C77.3505 23.2899 74.5039 25.1793 71.3534 26.3704C68.5362 25.3999 65.5898 24.8666 62.6146 24.7889C59.6517 24.7745 56.7153 25.3527 53.9743 26.4904C51.2333 27.628 48.742 29.3026 46.6438 31.4177C44.5455 33.5327 42.8818 36.0465 41.7484 38.8143C40.6149 41.582 40.0342 44.5491 40.0395 47.5448C40.0395 55.7254 44.9618 62.7199 45.4338 63.4016C45.9058 64.0833 47.0251 65.9104 48.3198 67.492C48.6299 67.8601 59.2162 82.0672 65.8512 83.8533C65.318 83.9084 64.7824 83.9358 64.2464 83.9351C56.3033 83.826 53.6062 78.8495 51.826 76.3544C49.2319 72.1256 47.8629 67.246 47.8747 62.27C47.8534 59.8357 48.465 57.4384 49.6484 55.3183C50.8318 53.1982 52.5454 51.4296 54.6176 50.1898C55.3782 49.6602 56.2216 49.2638 57.1124 49.0173C58.9623 48.4924 60.5992 47.3868 61.787 45.86C62.9747 44.3332 63.6518 42.4642 63.7204 40.523C63.7204 35.7782 60.3625 32.3423 55.211 31.6879C54.0973 31.5437 52.9758 31.4708 51.853 31.4697C45.9216 31.4842 40.238 33.8765 36.0489 38.1221C31.8597 42.3676 29.5072 48.1197 29.5072 54.1166V61.3565C29.5072 64.3305 28.9278 67.2754 27.8021 70.023C26.6764 72.7707 25.0265 75.2672 22.9465 77.3702C20.8664 79.4731 18.3971 81.1413 15.6794 82.2794C12.9618 83.4175 10.049 84.0033 7.10742 84.0033" stroke="#010101" stroke-width="2" stroke-miterlimit="10"/>
<path d="M83.2748 53.2986C84.5111 53.2986 85.5134 52.2853 85.5134 51.0353C85.5134 49.7853 84.5111 48.772 83.2748 48.772C82.0384 48.772 81.0361 49.7853 81.0361 51.0353C81.0361 52.2853 82.0384 53.2986 83.2748 53.2986Z" fill="#010101"/>
<path d="M7.12047 86.1441C8.35683 86.1441 9.35909 85.1307 9.35909 83.8808C9.35909 82.6308 8.35683 81.6174 7.12047 81.6174C5.8841 81.6174 4.88184 82.6308 4.88184 83.8808C4.88184 85.1307 5.8841 86.1441 7.12047 86.1441Z" fill="#010101"/>
</svg>
