<svg width="48" height="48" viewBox="0 0 48 48" fill="none" xmlns="http://www.w3.org/2000/svg">
  <path
    d="M7.68762 41.8388L7.64081 41.8377C7.3702 41.829 5.9636 41.7386 5.02651 40.8602C4.06569 39.9591 3.951 38.6634 3.93779 38.4126C3.93651 38.3891 3.93589 38.3654 3.93593 38.3418V31.2853C3.92194 30.9946 3.90316 30.0126 4.23219 28.9221C4.54744 27.8764 4.93691 27.1899 5.04845 27.0046L8.59111 20.7372C8.60881 20.7058 8.62755 20.6754 8.64762 20.6458C8.75807 20.4819 9.35188 19.6384 10.1661 19.1318C11.0228 18.5983 12.0598 18.5571 12.3573 18.5571H34.7352C34.764 18.5571 34.7925 18.5579 34.8219 18.5597C35.0444 18.574 36.1995 18.6715 37.0934 19.1829C37.947 19.6717 38.6341 20.526 38.763 20.692C38.7892 20.726 38.8138 20.7612 38.8367 20.7975L43.0443 27.4647C43.0622 27.494 43.0805 27.5247 43.0969 27.5561C43.1775 27.711 43.5934 28.5291 43.804 29.3248C44.012 30.112 44.0622 30.982 44.0698 31.1482L44.0709 31.205V38.2625C44.0757 38.6357 44.007 39.9163 42.9447 40.8679C41.9386 41.7685 40.5843 41.8382 40.1932 41.8382H7.68762V41.8388ZM7.32716 28.4348C7.24974 28.5724 7.00896 29.0278 6.80654 29.6987C6.59276 30.408 6.61815 31.071 6.62156 31.1445C6.62346 31.1762 6.62461 31.2081 6.62502 31.2399V38.2953L6.62765 38.3148C6.64432 38.4417 6.72174 38.7491 6.85521 38.8877L6.87317 38.9068L6.89433 38.9224C7.08117 39.0601 7.54414 39.1391 7.70584 39.1488L40.1953 39.1494C40.4649 39.1462 40.936 39.0564 41.1496 38.865C41.3406 38.6938 41.3834 38.3999 41.3834 38.3529L41.3808 38.2713V31.2462C41.3662 30.9722 41.3131 30.426 41.2032 30.0122C41.0787 29.5394 40.8002 28.9731 40.7455 28.8647L40.7304 28.8383L36.6014 22.2948L36.5885 22.2792C36.432 22.0907 36.0568 21.688 35.7571 21.5162C35.4976 21.3677 34.9691 21.2726 34.6969 21.2472L34.6686 21.2459H12.362C12.1533 21.2477 11.7654 21.303 11.5862 21.415C11.3338 21.5723 11.035 21.9317 10.9121 22.0995L10.9015 22.114L7.38104 28.342L7.343 28.406L7.34352 28.4044C7.34249 28.4075 7.32716 28.4348 7.32716 28.4348ZM23.875 16.5852C23.5185 16.5848 23.1767 16.4431 22.9246 16.191C22.6725 15.9389 22.5306 15.5972 22.5302 15.2407V7.50576C22.5306 7.14934 22.6724 6.80764 22.9244 6.5556C23.1764 6.30355 23.518 6.16173 23.8745 6.16124C24.231 6.16159 24.5728 6.30335 24.825 6.5554C25.0771 6.80745 25.219 7.14923 25.2195 7.50576V15.2406C25.2191 15.597 25.0774 15.9388 24.8253 16.1909C24.5732 16.443 24.2315 16.5847 23.875 16.5851V16.5852ZM32.8899 16.5342C32.5334 16.5337 32.1917 16.3918 31.9396 16.1397C31.6876 15.8876 31.5458 15.5459 31.5454 15.1894C31.5457 14.881 31.6517 14.582 31.8458 14.3424L34.9194 10.5516C35.0454 10.3958 35.2047 10.2701 35.3857 10.1839C35.5667 10.0978 35.7647 10.0533 35.9651 10.0538C36.2758 10.0538 36.5683 10.1576 36.8104 10.354C36.9481 10.4647 37.0624 10.6018 37.1466 10.7571C37.2309 10.9124 37.2834 11.083 37.3011 11.2588C37.3201 11.4344 37.304 11.612 37.2538 11.7814C37.2036 11.9507 37.1202 12.1084 37.0086 12.2453L33.9351 16.0361C33.8096 16.1919 33.6507 16.3176 33.4702 16.4037C33.2896 16.4899 33.092 16.5344 32.892 16.5339H32.8899V16.5342ZM15.0112 16.4314C14.8093 16.4319 14.6098 16.3866 14.4278 16.2989C14.2459 16.2112 14.0862 16.0834 13.9608 15.9251L10.9393 12.1346C10.7173 11.8555 10.6151 11.4999 10.6551 11.1456C10.6951 10.7913 10.874 10.4674 11.1526 10.2449C11.3898 10.0542 11.6853 9.95065 11.9897 9.95154C12.4019 9.95154 12.7854 10.1362 13.042 10.4581L16.0638 14.2486C16.2858 14.5275 16.3881 14.8831 16.3482 15.2373C16.3083 15.5915 16.1295 15.9155 15.8511 16.1381C15.6129 16.3275 15.3177 16.4308 15.0134 16.4314H15.0112Z"
    fill="#CCCCCC"
  />
  <path
    d="M23.9263 36.3068C20.9307 36.3068 18.3279 34.2984 17.5975 31.4235L17.5386 31.1918L5.59757 31.1847C5.24103 31.1839 4.89934 31.0418 4.64733 30.7896C4.39532 30.5374 4.25354 30.1956 4.25305 29.8391C4.25361 29.4827 4.39546 29.1411 4.6475 28.8892C4.89954 28.6372 5.2412 28.4955 5.59757 28.4951L18.7465 28.5035C19.1029 28.5044 19.4443 28.6464 19.6962 28.8985C19.948 29.1506 20.0897 29.4922 20.0903 29.8485C20.0903 31.9621 21.7752 33.6174 23.9263 33.6174C26.0697 33.6174 27.7487 31.9621 27.7487 29.8486C27.7495 29.4922 27.8914 29.1506 28.1434 28.8985C28.3953 28.6464 28.7369 28.5044 29.0933 28.5035L42.1205 28.4953C42.8622 28.4953 43.465 29.0975 43.4655 29.8388C43.466 30.58 42.8633 31.1838 42.122 31.1849L30.3018 31.1921L30.2428 31.4238C29.5132 34.2986 26.9161 36.3068 23.9263 36.3068Z"
    fill="#CCCCCC"
  />
</svg>
